<?xml version="1.0" encoding="UTF-8"?>
<svg version="1.1" xmlns="http://www.w3.org/2000/svg" width="200" height="200">
<path d="M0 0 C1.35637825 -0.01073296 1.35637825 -0.01073296 2.74015808 -0.02168274 C3.73499207 -0.02437164 4.72982605 -0.02706055 5.75480652 -0.02983093 C7.32327583 -0.03968773 7.32327583 -0.03968773 8.9234314 -0.04974365 C12.39481166 -0.06950622 15.86614862 -0.08114536 19.33757019 -0.09111023 C20.52101202 -0.09518576 21.70445385 -0.09926128 22.92375755 -0.10346031 C29.1864492 -0.12433287 35.44911884 -0.13862992 41.71183777 -0.147995 C48.18859729 -0.15906673 54.66501392 -0.19347245 61.14165211 -0.23316669 C66.11473236 -0.25927972 71.08773024 -0.26768208 76.06087303 -0.27127647 C78.44872544 -0.27615554 80.83657385 -0.28780679 83.22435951 -0.30631447 C86.56421407 -0.33059398 89.90317247 -0.32976107 93.24308777 -0.32279968 C94.23184906 -0.33560974 95.22061035 -0.3484198 96.23933411 -0.36161804 C100.58753685 -0.32853736 103.0152163 -0.27048836 106.78366089 2.05154419 C109.76577564 5.32454698 110.03048725 7.67274253 109.98210144 12.10810852 C109.52782251 15.31261664 107.99747913 16.97441313 105.69303894 19.14717102 C102.45438259 20.22672314 99.90148057 20.35158843 96.49382019 20.46357727 C94.68107605 20.52641907 94.68107605 20.52641907 92.83171082 20.5905304 C91.5690741 20.6298468 90.30643738 20.66916321 89.00553894 20.70967102 C87.09418152 20.77444641 87.09418152 20.77444641 85.14421082 20.8405304 C81.99393043 20.94671962 78.84357055 21.04876635 75.69303894 21.14717102 C75.98178894 21.67826477 76.27053894 22.20935852 76.56803894 22.75654602 C76.93928894 23.46295227 77.31053894 24.16935852 77.69303894 24.89717102 C78.06428894 25.59326477 78.43553894 26.28935852 78.81803894 27.00654602 C79.69303894 29.14717102 79.69303894 29.14717102 79.69303894 33.14717102 C80.32806335 33.13146057 80.96308777 33.11575012 81.61735535 33.0995636 C84.51749124 33.03688512 87.41748418 32.99807685 90.31803894 32.95967102 C91.8165741 32.92196594 91.8165741 32.92196594 93.34538269 32.88349915 C98.86053342 32.82871288 102.99707058 32.88734832 107.69303894 36.14717102 C109.70775491 39.16924497 110.03022928 40.06443801 110.13053894 43.52217102 C110.19048035 44.64752258 110.19048035 44.64752258 110.25163269 45.79560852 C109.33458856 49.65617193 107.95601556 50.87094998 104.69303894 53.14717102 C100.59215659 53.89969554 96.54190381 53.9377819 92.38053894 53.95967102 C91.25841003 53.98480774 90.13628113 54.00994446 88.98014832 54.0358429 C86.21742608 54.09462422 83.45628502 54.13097082 80.69303894 54.14717102 C80.38148865 54.97587708 80.06993835 55.80458313 79.74894714 56.65840149 C75.27182387 68.37261227 68.57543775 77.79201572 57.07194519 83.43232727 C50.35921586 86.21516751 44.12595691 87.28673275 36.88053894 87.70967102 C36.18766785 87.75285461 35.49479675 87.79603821 34.78092957 87.8405304 C33.08515208 87.94578555 31.38911842 88.04689966 29.69303894 88.14717102 C30.62598282 89.06346031 30.62598282 89.06346031 31.57777405 89.9982605 C37.44674124 95.76690032 43.30349992 101.54760267 49.14698601 107.34205723 C52.15137485 110.32039068 55.1602192 113.29391025 58.17985535 116.25679016 C61.09568287 119.1181545 63.99900211 121.99168314 66.89418411 124.87392998 C67.99897421 125.96950596 69.10814475 127.0606834 70.22178268 128.14726448 C71.78518464 129.67418682 73.33204652 131.21624127 74.87614441 132.76264954 C75.75994781 133.63534988 76.64375122 134.50805023 77.55433655 135.40719604 C80.06065973 138.61814435 80.95994664 141.15534357 81.69303894 145.14717102 C80.31598979 149.56822357 79.57361938 151.56011739 75.69303894 154.14717102 C72.017628 154.96634545 68.25691434 155.13396654 64.9914856 153.07350159 C64.43787857 152.56188477 63.88427155 152.05026794 63.31388855 151.52314758 C62.62132965 150.88357117 61.92877075 150.24399475 61.21522522 149.58503723 C55.40381479 143.96791004 49.66351314 138.28256581 43.94694519 132.56904602 C42.52595118 131.15126932 41.10488369 129.73356625 39.68374634 128.31593323 C36.72095898 125.35910505 33.76021664 122.4002464 30.80070496 119.44013977 C27.00375222 115.64308479 23.1999294 111.85299209 19.39436436 108.06457138 C16.46481653 105.14611555 13.53979804 102.22315304 10.61605644 99.29888153 C9.21459603 97.89860247 7.81151083 96.49994764 6.40678596 95.10294342 C4.451298 93.15721234 2.50219931 91.20529718 0.55461121 89.25166321 C-0.02767242 88.67499908 -0.60995605 88.09833496 -1.20988464 87.50419617 C-4.7635569 83.92231021 -6.14876769 81.85565941 -6.61946106 76.77217102 C-6.25581079 72.55382788 -5.25811114 71.0983211 -2.30696106 68.14717102 C0.99721873 66.49508113 4.68753814 66.96796016 8.32194519 66.93623352 C10.09734465 66.90814081 11.87273514 66.87947622 13.64811707 66.85029602 C16.44344093 66.80922068 19.23860162 66.77233175 22.03410339 66.74580383 C24.73457006 66.7179615 27.43427737 66.67206657 30.13444519 66.62373352 C31.36778343 66.61885422 31.36778343 66.61885422 32.6260376 66.61387634 C40.24163306 66.45491915 47.51755776 64.96940009 53.19303894 59.58467102 C53.84272644 58.98525696 54.49241394 58.3858429 55.16178894 57.76826477 C56.78273702 56.20866846 56.78273702 56.20866846 57.69303894 54.14717102 C56.92740128 54.14352539 56.16176361 54.13987976 55.3729248 54.13612366 C48.1485718 54.09821724 40.92473298 54.04133541 33.70071125 53.96326828 C29.9869545 53.92380101 26.27343458 53.89160922 22.55949402 53.87617493 C18.97358545 53.86100282 15.38832798 53.82654907 11.80270958 53.778862 C10.43647619 53.76405361 9.07014983 53.75613031 7.70383644 53.75528717 C5.78647098 53.75291453 3.86919705 53.72353348 1.95207214 53.69306946 C0.86175186 53.68418701 -0.22856842 53.67530457 -1.35192871 53.66615295 C-4.99061844 53.02710268 -6.67130497 51.68519787 -9.30696106 49.14717102 C-10.90904966 45.94299381 -10.79981321 42.6237767 -10.30696106 39.14717102 C-8.18247836 35.70404388 -7.15843464 34.43099555 -3.30696106 33.14717102 C-1.32916922 33.03025861 0.65218649 32.97044106 2.63322449 32.94184875 C3.85426376 32.92190353 5.07530304 32.90195831 6.33334351 32.88140869 C7.65216019 32.8646962 8.97097687 32.8479837 10.32975769 32.83076477 C11.69311138 32.81018842 13.05645879 32.78919177 14.4197998 32.76779175 C18.00525316 32.71264132 21.59076342 32.66320115 25.17631531 32.61494446 C28.83623814 32.56467803 32.49607851 32.50901883 36.15592957 32.45381165 C43.33489615 32.34631608 50.51393139 32.24485212 57.69303894 32.14717102 C53.60874731 26.44517957 49.52635283 23.02604163 42.69303894 21.14717102 C39.10035565 20.66128725 35.58370931 20.63485751 31.96257019 20.67842102 C30.96851669 20.67137146 29.9744632 20.6643219 28.95028687 20.65705872 C25.80177039 20.63516255 22.65410857 20.63799926 19.50553894 20.64717102 C15.34492545 20.65922985 11.18557309 20.64551163 7.02507019 20.61592102 C5.60458122 20.63290039 5.60458122 20.63290039 4.15539551 20.65022278 C-1.6342194 20.60600852 -4.88437985 19.98224902 -9.30696106 16.14717102 C-10.90782733 12.94543848 -10.80613195 9.62140043 -10.30696106 6.14717102 C-7.34655767 1.50920571 -5.38858739 0.02921999 0 0 Z " fill="#000000" transform="translate(50.30696105957031,22.852828979492188)"/>
</svg>
